<svg xmlns="http://www.w3.org/2000/svg" width="102" height="102" viewBox="0 0 102 102">
    <g fill="none" fill-rule="evenodd" transform="translate(1 1)">
        <path fill="#035E16" d="M36.49 52.73c1.032-.223 3.047-.473 5.278.25.146.055.293.107.439.155 1.181.448 2.408 1.178 3.57 2.34 2.215 2.213 2.877 4.646 2.973 6.559v1.024a10.226 10.226 0 0 1-.226 1.703c-1.642.365-5.75.798-9.296-2.744-3.491-3.488-3.125-7.525-2.739-9.286m0-15c1.64-.356 5.761-.78 9.288 2.744l.065.067c.135.151.27.296.405.435 1.839 2.073 2.414 4.288 2.503 6.058v1.024a10.222 10.222 0 0 1-.226 1.703c-1.017.226-2.981.477-5.172-.206a12.39 12.39 0 0 0-.662-.234c-1.146-.452-2.332-1.176-3.462-2.304-3.491-3.489-3.125-7.525-2.739-9.287M49.992 23.75c1.64.999 5.008 3.67 5.008 8.748 0 3.018-1.19 5.184-2.482 6.647-.269.256-.52.515-.757.775a11.075 11.075 0 0 1-1.758 1.33 11.186 11.186 0 0 1-2.267-1.84C46.35 37.945 45 35.696 45 32.498c0-5.147 3.46-7.818 4.992-8.748M63.51 37.736c.387 1.759.755 5.795-2.735 9.283-1.127 1.126-2.31 1.849-3.452 2.301-.223.072-.447.15-.673.238-2.188.681-4.15.43-5.162.204a10.292 10.292 0 0 1-.238-2.16v-.04a9.707 9.707 0 0 1 2.373-6.422c.226-.224.453-.466.678-.725 3.522-3.462 7.58-3.04 9.21-2.68M60.772 62.02c-3.544 3.54-7.652 3.106-9.29 2.743-.357-1.631-.788-5.754 2.744-9.281 1.13-1.129 2.317-1.852 3.463-2.304.219-.07.439-.148.66-.233 2.185-.681 4.144-.433 5.16-.208.387 1.758.755 5.795-2.737 9.283M33.09 50.984c-.41 1.273-2.17 7.899 3.37 13.435 3.206 3.204 6.764 3.968 9.43 3.968.986 0 1.849-.105 2.528-.23V78.43a1.57 1.57 0 0 0 3.142 0V68.153c.682.126 1.553.234 2.55.234 2.666 0 6.225-.765 9.43-3.968 5.54-5.536 3.78-12.162 3.37-13.435a1.57 1.57 0 0 0-.968-1.033c-.096-.035-.87-.309-2.073-.485 5.139-5.464 3.442-11.847 3.041-13.094a1.57 1.57 0 0 0-.968-1.033c-.22-.081-4.067-1.436-8.449.088.248-1.015.393-2.13.393-3.353 0-7.83-5.933-11.27-7.123-11.881a1.572 1.572 0 0 0-1.416-.047c-.295.137-7.216 3.447-7.216 11.928 0 1.226.146 2.343.394 3.36-4.39-1.535-8.246-.176-8.467-.095a1.57 1.57 0 0 0-.968 1.033c-.4 1.247-2.097 7.63 3.041 13.094-1.203.176-1.977.45-2.073.485-.473.173-.83.56-.968 1.033"/>
        <circle cx="50" cy="50" r="50" stroke="#035E16" stroke-width="2"/>
    </g>
</svg>
