<svg xmlns="http://www.w3.org/2000/svg" width="13" height="13" viewBox="0 0 13 13">
    <g fill="#FFF" fill-rule="evenodd" opacity=".5">
        <path d="M6.357 12.191c-3.189 0-5.784-2.543-5.784-5.67S3.168.85 6.357.85c3.19 0 5.786 2.543 5.786 5.67s-2.596 5.67-5.786 5.67m0-12.027A6.365 6.365 0 0 0 0 6.52a6.365 6.365 0 0 0 6.357 6.357 6.365 6.365 0 0 0 6.358-6.357A6.365 6.365 0 0 0 6.357.164"/>
        <path d="M9.67 6.325H6.815V2.89a.523.523 0 1 0-1.047 0v3.958c0 .29.235.523.523.523h3.38a.523.523 0 1 0 0-1.046"/>
    </g>
</svg>
