<svg xmlns="http://www.w3.org/2000/svg" width="16" height="16" viewBox="0 0 16 16">
    <path fill="none" fill-rule="evenodd" stroke="#005C13" stroke-width=".7" d="M12.151 14.875c-.578 0-1.276-.145-2.041-.435-1.682-.633-3.509-1.884-5.15-3.525-1.64-1.64-2.894-3.47-3.527-5.15C.856 4.238.856 2.982 1.43 2.408c.083-.082.167-.171.253-.262C2.207 1.594 2.8.973 3.584 1c.542.023 1.066.36 1.602 1.028 1.586 1.97.87 2.675.043 3.488l-.146.146c-.134.135-.392.761 1.99 3.14.774.777 1.437 1.345 1.966 1.689.332.216.93.544 1.173.3l.149-.148c.813-.827 1.514-1.538 3.486.046.667.537 1.005 1.06 1.025 1.602.032.783-.593 1.378-1.144 1.902-.09.087-.18.171-.262.253-.284.285-.74.428-1.315.428" opacity=".5"/>
</svg>
