<svg xmlns="http://www.w3.org/2000/svg" width="16" height="12" viewBox="0 0 16 12">
    <path fill="#FFF" fill-rule="evenodd" d="M2 10.756c-.101 0-.193-.03-.285-.057L6.05 5.854l1.624 1.36a.5.5 0 0 0 .65 0l1.624-1.36 4.336 4.845c-.092.028-.183.057-.285.057H2zm-.96-.787C1.026 9.905 1 9.846 1 9.778V1.956c0-.102.03-.193.06-.285L5.29 5.217 1.04 9.97zM14 .978c.066 0 .125.025.187.037L8 6.201 1.812 1.015c.063-.012.122-.037.188-.037h12zm-3.292 4.24l4.233-3.547c.03.092.059.183.059.285v7.822c0 .068-.026.128-.04.192l-4.252-4.752zM14 0H2C.896 0 0 .876 0 1.956v7.822c0 1.08.896 1.955 2 1.955h12c1.104 0 2-.875 2-1.955V1.956C16 .876 15.104 0 14 0z" opacity=".5"/>
</svg>
